<svg width="20" height="20" viewBox="0 0 20 20" fill="none" xmlns="http://www.w3.org/2000/svg">
<path d="M6.4295 20C5.00093 20 3.6676 19.4286 2.71522 18.4762C1.76283 17.5238 1.19141 16.1905 1.19141 14.7619C1.19141 13.3333 1.76283 12 2.71522 11.0476L12.62 0.952381C13.3819 0.285714 14.239 0 15.1914 0C16.1438 0 17.0009 0.380952 17.6676 1.04762C18.3343 1.71429 18.7152 2.57143 18.7152 3.52381C18.7152 4.47619 18.4295 5.33333 17.7628 6.09524L7.95331 16.1905C7.57236 16.5714 7.00093 16.7619 6.52474 16.7619C5.95331 16.7619 5.38188 16.5714 5.00093 16.1905C4.61998 15.8095 4.4295 15.3333 4.4295 14.7619C4.4295 14.1905 4.61998 13.7143 5.00093 13.3333L13.2866 4.85714C13.4771 4.66667 13.7628 4.66667 13.9533 4.85714C14.1438 5.04762 14.1438 5.33333 13.9533 5.52381L5.6676 14C5.47712 14.1905 5.38188 14.4762 5.38188 14.7619C5.38188 15.0476 5.47712 15.3333 5.6676 15.5238C5.85807 15.7143 6.14379 15.8095 6.4295 15.8095C6.71522 15.8095 7.00093 15.7143 7.19141 15.5238L17.1914 5.52381C17.6676 5.04762 17.8581 4.38095 17.8581 3.61905C17.8581 2.95238 17.5724 2.28571 17.0962 1.80952C16.5247 1.2381 15.8581 0.952381 15.1914 0.952381C14.4295 0.952381 13.8581 1.14286 13.2866 1.61905L3.38188 11.7143C2.52474 12.5714 2.14379 13.619 2.14379 14.7619C2.14379 15.9048 2.61998 16.9524 3.38188 17.8095C4.14379 18.6667 5.28664 19.0476 6.4295 19.0476C7.57236 19.0476 8.61998 18.5714 9.47712 17.8095L17.6676 9.61905C17.8581 9.42857 18.1438 9.42857 18.3343 9.61905C18.5247 9.80952 18.5247 10.0952 18.3343 10.2857L10.1438 18.4762C9.19141 19.4286 7.85807 20 6.4295 20Z" fill="white"/>
</svg>
