<svg width="16" height="17" viewBox="0 0 16 17" fill="none" xmlns="http://www.w3.org/2000/svg">
<path d="M8 0.341797C3.6875 0.341797 0.1875 3.99682 0.1875 8.50032C0.1875 13.0038 3.6875 16.6588 8 16.6588C12.3125 16.6588 15.8125 13.0038 15.8125 8.50032C15.8125 3.99682 12.3125 0.341797 8 0.341797ZM8 15.0271C4.5625 15.0271 1.75 12.0901 1.75 8.50032C1.75 4.91057 4.5625 1.9735 8 1.9735C11.4375 1.9735 14.25 4.91057 14.25 8.50032C14.25 12.0901 11.4375 15.0271 8 15.0271Z" fill="#fff"/>
<path d="M5.9375 5.98776C6.21875 5.66142 6.5625 5.40034 6.96875 5.23717C7.375 5.04137 7.78125 4.94347 8.21875 4.94347C8.75 4.94347 9.28125 5.074 9.71875 5.36771C10.1562 5.62878 10.5625 6.02039 10.8437 6.44464L11.9688 5.56352C11.5313 4.9761 11 4.45396 10.375 4.12761C9.71875 3.76864 9.03125 3.60547 8.25 3.60547C7.625 3.60547 7 3.73601 6.4375 3.99708C5.875 4.25815 5.375 4.61713 4.96875 5.04137C4.5625 5.49825 4.21875 5.98776 3.96875 6.60781C3.71875 7.19522 3.59375 7.8479 3.59375 8.50058C3.59375 9.1859 3.71875 9.80595 3.96875 10.3934C4.21875 10.9808 4.53125 11.5029 4.96875 11.9598C5.375 12.4167 5.875 12.743 6.4375 13.0041C7 13.2652 7.59375 13.3957 8.25 13.3957C9.03125 13.3957 9.75 13.2325 10.375 12.8736C11 12.5146 11.5625 12.0251 11.9688 11.4377L10.8437 10.5565C10.5625 11.0134 10.1875 11.3724 9.71875 11.6335C9.25 11.8945 8.75 12.0251 8.21875 12.0251C7.78125 12.0251 7.375 11.9272 6.96875 11.7314C6.59375 11.5356 6.25 11.2745 5.9375 10.9808C5.65625 10.6544 5.40625 10.2955 5.25 9.87122C5.09375 9.44697 5 8.9901 5 8.50058C5 8.01107 5.09375 7.5542 5.25 7.12995C5.40625 6.70571 5.65625 6.3141 5.9375 5.98776Z" fill="#fff"/>
</svg>
