<svg width="24" height="24" viewBox="0 0 24 24" fill="none" xmlns="http://www.w3.org/2000/svg">
<path d="M23.5 12.25C23.5019 13.7318 23.2101 15.1993 22.6416 16.5677C22.073 17.9361 21.2389 19.1782 20.1874 20.2223C19.1446 21.2633 17.9068 22.0886 16.5449 22.651C15.1829 23.2134 13.7235 23.5019 12.25 23.5C6.03664 23.5 1.00001 18.4634 1.00001 12.25C0.996077 9.36538 2.10412 6.59022 4.09376 4.50157C5.14358 3.39378 6.4084 2.51186 7.81083 1.90979C9.21326 1.30771 10.7238 0.998135 12.25 1.00001C13.7235 0.998101 15.1829 1.28659 16.5449 1.849C17.9068 2.4114 19.1446 3.23669 20.1874 4.2777C21.2389 5.32182 22.073 6.56396 22.6416 7.93234C23.2101 9.30072 23.5019 10.7682 23.5 12.25Z" stroke="white" stroke-linecap="round" stroke-linejoin="round"/>
<path d="M23.4999 12.2506C21.8585 12.2506 17.3304 11.6319 13.2776 13.411C8.87491 15.3444 5.68723 18.343 4.29785 20.2083" stroke="white" stroke-linecap="round" stroke-linejoin="round"/>
<path d="M8.03125 1.81836C9.79188 3.44342 13.6338 7.58061 15.0625 11.688C16.4912 15.7954 17.02 20.8455 17.3463 22.2827" stroke="white" stroke-linecap="round" stroke-linejoin="round"/>
<path d="M1.08691 10.843C3.21204 10.9713 8.8376 11.0866 12.4376 9.5493C16.0376 8.01198 19.1353 5.1843 20.1979 4.28711M1.84404 16.5316C2.83534 18.9312 4.62319 20.9159 6.90654 22.1515" stroke="white" stroke-linecap="round" stroke-linejoin="round"/>
<path d="M1.00001 12.25C0.996077 9.36538 2.10412 6.59022 4.09376 4.50157C5.14358 3.39378 6.4084 2.51186 7.81083 1.90979C9.21326 1.30771 10.7238 0.998134 12.25 1.00001M16.75 1.93601C18.0312 2.49656 19.1968 3.29064 20.1874 4.2777C21.2389 5.32182 22.073 6.56396 22.6416 7.93234C23.2101 9.30072 23.5019 10.7682 23.5 12.25C23.5 13.6349 23.2497 14.9618 22.7913 16.1875M12.25 23.5C13.7235 23.5019 15.1829 23.2134 16.5449 22.651C17.9068 22.0886 19.1446 21.2633 20.1874 20.2223" stroke="white" stroke-linecap="round" stroke-linejoin="round"/>
</svg>
