<svg viewBox="0 0 20 20" xmlns="http://www.w3.org/2000/svg">
<path d="M19.9453 5.88005C19.8984 4.81738 19.7266 4.0868 19.4804 3.45374C19.2264 2.78176 18.8357 2.18014 18.3239 1.68002C17.8237 1.1721 17.2182 0.777435 16.554 0.527447C15.9172 0.281274 15.1905 0.109427 14.1278 0.0625732C13.0572 0.0117516 12.7173 0 10.0019 0C7.28657 0 6.94669 0.0117516 5.88005 0.0586052C4.81737 0.105459 4.08679 0.277459 3.45389 0.523479C2.78176 0.777435 2.18014 1.16814 1.68001 1.68002C1.1721 2.18014 0.777586 2.78573 0.527446 3.44992C0.281274 4.0868 0.109427 4.81341 0.0625731 5.87609C0.0117515 6.9467 0 7.28658 0 10.002C0 12.7173 0.0117515 13.0572 0.0586051 14.1239C0.105459 15.1865 0.277459 15.9171 0.52363 16.5502C0.777586 17.2221 1.1721 17.8238 1.68001 18.3239C2.18014 18.8318 2.78573 19.2265 3.44992 19.4765C4.08679 19.7226 4.8134 19.8945 5.87623 19.9413C6.94272 19.9883 7.28275 19.9999 9.99812 19.9999C12.7135 19.9999 13.0534 19.9883 14.12 19.9413C15.1827 19.8945 15.9133 19.7226 16.5462 19.4765C17.8903 18.9568 18.953 17.8941 19.4726 16.5502C19.7186 15.9133 19.8906 15.1865 19.9375 14.1239C19.9843 13.0572 19.9961 12.7173 19.9961 10.002C19.9961 7.28658 19.9921 6.9467 19.9453 5.88005ZM18.1442 14.0457C18.1012 15.0225 17.9371 15.5499 17.8004 15.9015C17.4643 16.7728 16.7728 17.4643 15.9015 17.8004C15.5499 17.9372 15.0186 18.1012 14.0457 18.1441C12.9908 18.1911 12.6744 18.2027 10.0059 18.2027C7.33739 18.2027 7.01705 18.1911 5.96597 18.1441C4.98922 18.1012 4.46177 17.9372 4.11014 17.8004C3.67655 17.6402 3.28189 17.3862 2.96154 17.0541C2.62945 16.7298 2.37549 16.3391 2.21524 15.9055C2.0785 15.5539 1.91443 15.0225 1.87155 14.0497C1.82454 12.9948 1.81294 12.6783 1.81294 10.0097C1.81294 7.34122 1.82454 7.02087 1.87155 5.96995C1.91443 4.99319 2.0785 4.46575 2.21524 4.11412C2.37549 3.68038 2.62945 3.28586 2.96551 2.96536C3.28967 2.63327 3.68037 2.37931 4.11411 2.21921C4.46574 2.08247 4.99715 1.9184 5.96994 1.87537C7.02483 1.82851 7.34136 1.81676 10.0097 1.81676C12.6822 1.81676 12.9986 1.82851 14.0497 1.87537C15.0264 1.9184 15.5539 2.08247 15.9055 2.21921C16.3391 2.37931 16.7337 2.63327 17.0541 2.96536C17.3862 3.28967 17.6401 3.68038 17.8004 4.11412C17.9371 4.46575 18.1012 4.99701 18.1442 5.96995C18.1911 7.02484 18.2028 7.34122 18.2028 10.0097C18.2028 12.6783 18.1911 12.9908 18.1442 14.0457Z" fill="white"/>
<path d="M10.001 4.86328C7.1646 4.86328 4.86328 7.16445 4.86328 10.001C4.86328 12.8376 7.1646 15.1387 10.001 15.1387C12.8376 15.1387 15.1387 12.8376 15.1387 10.001C15.1387 7.16445 12.8376 4.86328 10.001 4.86328ZM10.001 13.3337C8.16089 13.3337 6.66829 11.8413 6.66829 10.001C6.66829 8.16074 8.16089 6.66829 10.001 6.66829C11.8413 6.66829 13.3337 8.16074 13.3337 10.001C13.3337 11.8413 11.8413 13.3337 10.001 13.3337Z" fill="white"/>
<path d="M16.5435 4.66036C16.5435 5.32273 16.0065 5.85979 15.344 5.85979C14.6816 5.85979 14.1445 5.32273 14.1445 4.66036C14.1445 3.99785 14.6816 3.46094 15.344 3.46094C16.0065 3.46094 16.5435 3.99785 16.5435 4.66036Z" fill="white"/>
</svg>