<svg width="25" height="17" viewBox="0 0 25 17" fill="none" xmlns="http://www.w3.org/2000/svg">
<path d="M11.95 9.29273C12.3362 9.96721 12.5266 10.736 12.5 11.5127C12.515 12.351 12.3006 13.1775 11.88 13.9027C11.6252 14.3564 11.2857 14.7569 10.88 15.0827C10.4204 15.4547 9.87879 15.7119 9.3 15.8327C8.64266 15.9724 7.97198 16.0395 7.3 16.0327H1V1.01273H7.78C8.47015 0.958808 9.1629 1.07672 9.79635 1.35592C10.4298 1.63513 10.9842 2.06693 11.41 2.61273C11.8505 3.29355 12.0737 4.09217 12.05 4.90273C12.0889 5.69164 11.8598 6.47052 11.4 7.11273C11.1057 7.46678 10.7414 7.75617 10.33 7.96273C11.006 8.20814 11.5777 8.67747 11.95 9.29273Z" stroke="white" stroke-linecap="round" stroke-linejoin="round"/>
<path d="M4 7.01177H7C7.51496 7.03387 8.02632 6.9164 8.48 6.67177C8.66095 6.54116 8.80429 6.36516 8.89558 6.16152C8.98687 5.95787 9.02289 5.73377 9 5.51177C9.02784 5.25021 8.9697 4.98671 8.83436 4.76115C8.69903 4.5356 8.49389 4.36029 8.25 4.26177C7.71624 4.0936 7.15962 4.00926 6.6 4.01177H4V7.01177ZM9 11.1418C9.02467 10.8485 8.95693 10.5548 8.80629 10.302C8.65565 10.0491 8.42966 9.84972 8.16 9.73177C7.73942 9.56987 7.29035 9.49503 6.84 9.51177H4V13.0118H6.79C7.24814 13.0345 7.70567 12.956 8.13 12.7818C8.42281 12.6273 8.66237 12.3882 8.81753 12.0957C8.97268 11.8033 9.03626 11.4709 9 11.1418Z" stroke="white" stroke-linecap="round" stroke-linejoin="round"/>
<path d="M23.9799 11.0117V10.5117C24.0425 9.12029 23.5516 7.76069 22.6147 6.73008C21.6778 5.69947 20.371 5.08167 18.9799 5.01172C17.5889 5.08167 16.282 5.69947 15.3451 6.73008C14.4082 7.76069 13.9174 9.12029 13.9799 10.5117C13.9174 11.9031 14.4082 13.2627 15.3451 14.2934C16.282 15.324 17.5889 15.9418 18.9799 16.0117C19.9301 15.9864 20.8534 15.6907 21.6415 15.1594C22.4297 14.628 23.0501 13.883 23.4299 13.0117H20.7399C20.55 13.3045 20.2931 13.5478 19.9906 13.7217C19.6881 13.8956 19.3485 13.995 18.9999 14.0117C17.7399 14.0117 16.7099 12.7017 16.5399 11.0117H23.9799ZM18.9799 7.01172C19.5161 7.07052 20.0207 7.29462 20.4238 7.65296C20.827 8.0113 21.1087 8.48615 21.2299 9.01172H16.7299C16.8523 8.48319 17.137 8.0062 17.5441 7.64756C17.9511 7.28891 18.4602 7.06659 18.9999 7.01172H18.9799Z" stroke="white" stroke-linecap="round" stroke-linejoin="round"/>
<path d="M16 1.01367H22V3.01367H16V1.01367Z" stroke="white" stroke-linecap="round" stroke-linejoin="round"/>
</svg>
