<svg viewBox="0 0 17 21" xmlns="http://www.w3.org/2000/svg">
<path d="M16.1905 3.11111H15.381C14.488 3.11111 13.7619 2.41344 13.7619 1.55556V0.777778C13.7619 0.571498 13.6766 0.373667 13.5248 0.227806C13.373 0.0819442 13.1671 0 12.9524 0H9.71429C9.49959 0 9.29368 0.0819442 9.14187 0.227806C8.99005 0.373667 8.90476 0.571498 8.90476 0.777778V14.3889C8.90476 15.4607 7.99729 16.3333 6.88095 16.3333C5.76462 16.3333 4.85714 15.4607 4.85714 14.3889C4.85714 13.3171 5.76462 12.4444 6.88095 12.4444C6.953 12.4444 7.01695 12.4219 7.08333 12.4056C7.14971 12.4219 7.21367 12.4444 7.28571 12.4444C7.50041 12.4444 7.70632 12.3625 7.85813 12.2166C8.00995 12.0708 8.09524 11.8729 8.09524 11.6667V8.55556C8.09524 8.34928 8.00995 8.15145 7.85813 8.00558C7.70632 7.85972 7.50041 7.77778 7.28571 7.77778C7.21367 7.77778 7.14971 7.80033 7.08333 7.81667C7.01695 7.80033 6.953 7.77778 6.88095 7.77778C3.08671 7.77778 0 10.7434 0 14.3889C0 18.0343 3.08671 21 6.88095 21C10.4922 21 13.4575 18.3112 13.7344 14.9084C13.7425 14.8641 13.7619 14.8237 13.7619 14.7778V7.51489C15.0199 7.92633 16.2301 7.77933 16.2973 7.77078C16.4918 7.7459 16.6702 7.65404 16.7994 7.51227C16.9287 7.3705 17 7.18846 17 7V3.88889C17 3.68261 16.9147 3.48478 16.7629 3.33892C16.6111 3.19306 16.4052 3.11111 16.1905 3.11111ZM15.381 6.24011C14.824 6.20978 14.0477 6.07678 13.464 5.61944C13.3453 5.52646 13.2016 5.46772 13.0496 5.45005C12.8976 5.43238 12.7435 5.4565 12.6051 5.51962C12.4668 5.58273 12.3499 5.68225 12.2681 5.80661C12.1863 5.93098 12.1429 6.07509 12.1429 6.22222V14.3889C12.1429 17.1764 9.78229 19.4444 6.88095 19.4444C3.97962 19.4444 1.61905 17.1764 1.61905 14.3889C1.61905 11.7328 3.76348 9.55267 6.47619 9.35278V10.9278C4.65962 11.1238 3.2381 12.5914 3.2381 14.3881C3.2381 16.3178 4.87252 17.8881 6.88095 17.8881C8.88938 17.8881 10.5238 16.3178 10.5238 14.3881V1.55556H12.1429C12.1429 3.27133 13.5951 4.66667 15.381 4.66667V6.24011Z" fill="white"/>
</svg>
