<svg viewBox="0 0 22 16" xmlns="http://www.w3.org/2000/svg">
<path d="M11.0006 14.8504L11.0006 15.3504L11.0005 14.8504H11.0003H10.9995L10.9961 14.8504L10.9822 14.8504L10.9275 14.8503C10.8794 14.8502 10.8084 14.85 10.7174 14.8495C10.5355 14.8487 10.2734 14.8469 9.95384 14.8435C9.31443 14.8366 8.44545 14.8228 7.52616 14.7953C6.60606 14.7677 5.63961 14.7265 4.80405 14.6651C3.95425 14.6025 3.28247 14.5217 2.92619 14.4253L2.92552 14.4251C2.56612 14.3283 2.23843 14.1389 1.97524 13.8757C1.71666 13.6171 1.52926 13.2963 1.43103 12.9442C1.13398 11.3144 0.989862 9.66032 1.00055 8.00362L1.0006 8.00362L1.00055 7.99716C0.989862 6.34046 1.13398 4.68641 1.43103 3.05655C1.52926 2.70452 1.71666 2.38366 1.97524 2.12507C2.23843 1.86189 2.56612 1.67245 2.92552 1.57571L2.92619 1.57553C3.28247 1.4791 3.95425 1.39824 4.80405 1.33572C5.63961 1.27425 6.60606 1.23304 7.52616 1.20548C8.44545 1.17795 9.31443 1.16417 9.95384 1.15728C10.2734 1.15383 10.5355 1.15211 10.7174 1.15125C10.8084 1.15082 10.8794 1.1506 10.9275 1.1505L10.9822 1.1504L10.9961 1.15039L10.9995 1.15039L11.0003 1.15039H11.0005L11.0006 0.650391L11.0006 1.15039H11.0008L11.0016 1.15039L11.0051 1.15039L11.0189 1.1504L11.0736 1.1505C11.1218 1.1506 11.1927 1.15082 11.2837 1.15125C11.4657 1.15211 11.7277 1.15383 12.0473 1.15728C12.6867 1.16417 13.5557 1.17795 14.475 1.20548C15.3951 1.23304 16.3615 1.27425 17.1971 1.33572C18.0469 1.39824 18.7187 1.4791 19.0749 1.57553L19.0756 1.57571C19.435 1.67245 19.7627 1.86189 20.0259 2.12507L20.3794 1.77152L20.0259 2.12507C20.2845 2.38365 20.4719 2.70451 20.5701 3.05654C20.8671 4.6864 21.0113 6.34046 21.0006 7.99716L21.0005 7.99716L21.0006 8.00362C21.0113 9.66032 20.8671 11.3144 20.5701 12.9442C20.4719 13.2963 20.2845 13.6171 20.0259 13.8757C19.7627 14.1389 19.435 14.3283 19.0756 14.4251L19.0749 14.4253C18.7187 14.5217 18.0469 14.6025 17.1971 14.6651C16.3615 14.7265 15.3951 14.7677 14.475 14.7953C13.5557 14.8228 12.6867 14.8366 12.0473 14.8435C11.7277 14.8469 11.4657 14.8487 11.2837 14.8495C11.1927 14.85 11.1218 14.8502 11.0736 14.8503L11.0189 14.8504L11.0051 14.8504L11.0016 14.8504H11.0008H11.0006ZM8.40056 11.1504V12.0167L9.15068 11.5833L14.6032 8.43333L15.3526 8.00039L14.6032 7.56745L9.15068 4.41745L8.40056 3.98409V4.85039V11.1504Z" stroke="white"/>
</svg>